<mxfile host="app.diagrams.net" modified="2024-02-27T03:25:18.496Z" agent="Mozilla/5.0 (Windows NT 10.0; Win64; x64) AppleWebKit/537.36 (KHTML, like Gecko) Chrome/121.0.0.0 Safari/537.36 Edg/121.0.0.0" etag="vsNQayrPceDMjg7Z9CqJ" version="23.1.7" type="github">
  <diagram id="C5RBs43oDa-KdzZeNtuy" name="Page-1">
    <mxGraphModel dx="1261" dy="761" grid="1" gridSize="10" guides="1" tooltips="1" connect="1" arrows="1" fold="1" page="1" pageScale="1" pageWidth="827" pageHeight="1169" math="0" shadow="0">
      <root>
        <mxCell id="WIyWlLk6GJQsqaUBKTNV-0" />
        <mxCell id="WIyWlLk6GJQsqaUBKTNV-1" parent="WIyWlLk6GJQsqaUBKTNV-0" />
        <mxCell id="9EvKPtUy3ETr_sZ4B2fN-3" value="" style="edgeStyle=orthogonalEdgeStyle;rounded=0;orthogonalLoop=1;jettySize=auto;html=1;" edge="1" parent="WIyWlLk6GJQsqaUBKTNV-1" source="WIyWlLk6GJQsqaUBKTNV-3">
          <mxGeometry relative="1" as="geometry">
            <mxPoint x="227.5" y="120" as="targetPoint" />
          </mxGeometry>
        </mxCell>
        <mxCell id="WIyWlLk6GJQsqaUBKTNV-3" value="User wishes to convert, USA Standards of Measurement to International Standard (SI) Units" style="rounded=1;whiteSpace=wrap;html=1;fontSize=12;glass=0;strokeWidth=1;shadow=0;" parent="WIyWlLk6GJQsqaUBKTNV-1" vertex="1">
          <mxGeometry x="125" y="30" width="205" height="70" as="geometry" />
        </mxCell>
        <mxCell id="9EvKPtUy3ETr_sZ4B2fN-8" style="edgeStyle=orthogonalEdgeStyle;rounded=0;orthogonalLoop=1;jettySize=auto;html=1;exitX=0.5;exitY=1;exitDx=0;exitDy=0;" edge="1" parent="WIyWlLk6GJQsqaUBKTNV-1">
          <mxGeometry relative="1" as="geometry">
            <mxPoint x="228" y="320" as="targetPoint" />
            <mxPoint x="227.5" y="260" as="sourcePoint" />
          </mxGeometry>
        </mxCell>
        <mxCell id="9EvKPtUy3ETr_sZ4B2fN-9" value="No" style="edgeLabel;html=1;align=center;verticalAlign=middle;resizable=0;points=[];" vertex="1" connectable="0" parent="9EvKPtUy3ETr_sZ4B2fN-8">
          <mxGeometry x="0.198" y="-2" relative="1" as="geometry">
            <mxPoint y="-16" as="offset" />
          </mxGeometry>
        </mxCell>
        <mxCell id="9EvKPtUy3ETr_sZ4B2fN-13" value="" style="edgeStyle=orthogonalEdgeStyle;rounded=0;orthogonalLoop=1;jettySize=auto;html=1;" edge="1" parent="WIyWlLk6GJQsqaUBKTNV-1" source="9EvKPtUy3ETr_sZ4B2fN-10" target="9EvKPtUy3ETr_sZ4B2fN-12">
          <mxGeometry relative="1" as="geometry" />
        </mxCell>
        <mxCell id="9EvKPtUy3ETr_sZ4B2fN-14" value="Yes" style="edgeLabel;html=1;align=center;verticalAlign=middle;resizable=0;points=[];" vertex="1" connectable="0" parent="9EvKPtUy3ETr_sZ4B2fN-13">
          <mxGeometry x="-0.1974" y="-1" relative="1" as="geometry">
            <mxPoint as="offset" />
          </mxGeometry>
        </mxCell>
        <mxCell id="9EvKPtUy3ETr_sZ4B2fN-16" value="" style="edgeStyle=orthogonalEdgeStyle;rounded=0;orthogonalLoop=1;jettySize=auto;html=1;" edge="1" parent="WIyWlLk6GJQsqaUBKTNV-1" source="9EvKPtUy3ETr_sZ4B2fN-10" target="9EvKPtUy3ETr_sZ4B2fN-15">
          <mxGeometry relative="1" as="geometry" />
        </mxCell>
        <mxCell id="9EvKPtUy3ETr_sZ4B2fN-53" value="No" style="edgeLabel;html=1;align=center;verticalAlign=middle;resizable=0;points=[];" vertex="1" connectable="0" parent="9EvKPtUy3ETr_sZ4B2fN-16">
          <mxGeometry x="-0.0807" y="-5" relative="1" as="geometry">
            <mxPoint as="offset" />
          </mxGeometry>
        </mxCell>
        <mxCell id="9EvKPtUy3ETr_sZ4B2fN-10" value="Does the user wish to convert pound to kilogram or vice versa" style="rhombus;whiteSpace=wrap;html=1;" vertex="1" parent="WIyWlLk6GJQsqaUBKTNV-1">
          <mxGeometry x="146.25" y="320" width="162.5" height="130" as="geometry" />
        </mxCell>
        <mxCell id="9EvKPtUy3ETr_sZ4B2fN-20" value="" style="edgeStyle=orthogonalEdgeStyle;rounded=0;orthogonalLoop=1;jettySize=auto;html=1;" edge="1" parent="WIyWlLk6GJQsqaUBKTNV-1" source="9EvKPtUy3ETr_sZ4B2fN-11" target="9EvKPtUy3ETr_sZ4B2fN-19">
          <mxGeometry relative="1" as="geometry" />
        </mxCell>
        <mxCell id="9EvKPtUy3ETr_sZ4B2fN-30" value="Yes" style="edgeLabel;html=1;align=center;verticalAlign=middle;resizable=0;points=[];" vertex="1" connectable="0" parent="9EvKPtUy3ETr_sZ4B2fN-20">
          <mxGeometry x="-0.3694" relative="1" as="geometry">
            <mxPoint as="offset" />
          </mxGeometry>
        </mxCell>
        <mxCell id="9EvKPtUy3ETr_sZ4B2fN-11" value="&lt;br&gt;&lt;span style=&quot;color: rgb(0, 0, 0); font-family: Helvetica; font-size: 12px; font-style: normal; font-variant-ligatures: normal; font-variant-caps: normal; font-weight: 400; letter-spacing: normal; orphans: 2; text-align: center; text-indent: 0px; text-transform: none; widows: 2; word-spacing: 0px; -webkit-text-stroke-width: 0px; background-color: rgb(251, 251, 251); text-decoration-thickness: initial; text-decoration-style: initial; text-decoration-color: initial; float: none; display: inline !important;&quot;&gt;Does the user wish to convert Fahrenheit to Celsius or vise versa&lt;/span&gt;&lt;div&gt;&lt;br/&gt;&lt;/div&gt;" style="rhombus;whiteSpace=wrap;html=1;" vertex="1" parent="WIyWlLk6GJQsqaUBKTNV-1">
          <mxGeometry x="150.63" y="120" width="153.75" height="140" as="geometry" />
        </mxCell>
        <mxCell id="9EvKPtUy3ETr_sZ4B2fN-36" value="" style="edgeStyle=orthogonalEdgeStyle;rounded=0;orthogonalLoop=1;jettySize=auto;html=1;" edge="1" parent="WIyWlLk6GJQsqaUBKTNV-1" source="9EvKPtUy3ETr_sZ4B2fN-12" target="9EvKPtUy3ETr_sZ4B2fN-35">
          <mxGeometry relative="1" as="geometry" />
        </mxCell>
        <mxCell id="9EvKPtUy3ETr_sZ4B2fN-12" value="User input numerical value to be converted" style="shape=parallelogram;perimeter=parallelogramPerimeter;whiteSpace=wrap;html=1;fixedSize=1;" vertex="1" parent="WIyWlLk6GJQsqaUBKTNV-1">
          <mxGeometry x="377.18" y="347.5" width="162.82" height="72.5" as="geometry" />
        </mxCell>
        <mxCell id="9EvKPtUy3ETr_sZ4B2fN-22" value="" style="edgeStyle=orthogonalEdgeStyle;rounded=0;orthogonalLoop=1;jettySize=auto;html=1;entryX=0.5;entryY=0;entryDx=0;entryDy=0;" edge="1" parent="WIyWlLk6GJQsqaUBKTNV-1" source="9EvKPtUy3ETr_sZ4B2fN-15" target="9EvKPtUy3ETr_sZ4B2fN-21">
          <mxGeometry relative="1" as="geometry">
            <mxPoint x="228" y="660" as="targetPoint" />
            <Array as="points" />
          </mxGeometry>
        </mxCell>
        <mxCell id="9EvKPtUy3ETr_sZ4B2fN-23" value="No" style="edgeLabel;html=1;align=center;verticalAlign=middle;resizable=0;points=[];" vertex="1" connectable="0" parent="9EvKPtUy3ETr_sZ4B2fN-22">
          <mxGeometry x="-0.4401" y="-1" relative="1" as="geometry">
            <mxPoint x="12" as="offset" />
          </mxGeometry>
        </mxCell>
        <mxCell id="9EvKPtUy3ETr_sZ4B2fN-27" value="" style="edgeStyle=orthogonalEdgeStyle;rounded=0;orthogonalLoop=1;jettySize=auto;html=1;" edge="1" parent="WIyWlLk6GJQsqaUBKTNV-1" source="9EvKPtUy3ETr_sZ4B2fN-15" target="9EvKPtUy3ETr_sZ4B2fN-26">
          <mxGeometry relative="1" as="geometry" />
        </mxCell>
        <mxCell id="9EvKPtUy3ETr_sZ4B2fN-29" value="Yes" style="edgeLabel;html=1;align=center;verticalAlign=middle;resizable=0;points=[];" vertex="1" connectable="0" parent="9EvKPtUy3ETr_sZ4B2fN-27">
          <mxGeometry x="-0.1684" y="-2" relative="1" as="geometry">
            <mxPoint as="offset" />
          </mxGeometry>
        </mxCell>
        <mxCell id="9EvKPtUy3ETr_sZ4B2fN-15" value="Does the user wish to convert foot to metre or vise versa" style="rhombus;whiteSpace=wrap;html=1;" vertex="1" parent="WIyWlLk6GJQsqaUBKTNV-1">
          <mxGeometry x="152.5" y="480" width="152.5" height="140" as="geometry" />
        </mxCell>
        <mxCell id="9EvKPtUy3ETr_sZ4B2fN-34" value="" style="edgeStyle=orthogonalEdgeStyle;rounded=0;orthogonalLoop=1;jettySize=auto;html=1;" edge="1" parent="WIyWlLk6GJQsqaUBKTNV-1" source="9EvKPtUy3ETr_sZ4B2fN-19" target="9EvKPtUy3ETr_sZ4B2fN-33">
          <mxGeometry relative="1" as="geometry" />
        </mxCell>
        <mxCell id="9EvKPtUy3ETr_sZ4B2fN-19" value="User input numerical value to be converted" style="shape=parallelogram;perimeter=parallelogramPerimeter;whiteSpace=wrap;html=1;fixedSize=1;" vertex="1" parent="WIyWlLk6GJQsqaUBKTNV-1">
          <mxGeometry x="377.18" y="155" width="178.74" height="70" as="geometry" />
        </mxCell>
        <mxCell id="9EvKPtUy3ETr_sZ4B2fN-25" value="" style="edgeStyle=orthogonalEdgeStyle;rounded=0;orthogonalLoop=1;jettySize=auto;html=1;" edge="1" parent="WIyWlLk6GJQsqaUBKTNV-1" source="9EvKPtUy3ETr_sZ4B2fN-21" target="9EvKPtUy3ETr_sZ4B2fN-24">
          <mxGeometry relative="1" as="geometry" />
        </mxCell>
        <mxCell id="9EvKPtUy3ETr_sZ4B2fN-28" value="yes" style="edgeLabel;html=1;align=center;verticalAlign=middle;resizable=0;points=[];" vertex="1" connectable="0" parent="9EvKPtUy3ETr_sZ4B2fN-25">
          <mxGeometry x="-0.1532" y="-2" relative="1" as="geometry">
            <mxPoint x="1" as="offset" />
          </mxGeometry>
        </mxCell>
        <mxCell id="9EvKPtUy3ETr_sZ4B2fN-21" value="Does the user wish to convert gallon to litre or vice versa" style="rhombus;whiteSpace=wrap;html=1;" vertex="1" parent="WIyWlLk6GJQsqaUBKTNV-1">
          <mxGeometry x="150.63" y="650" width="154.37" height="140" as="geometry" />
        </mxCell>
        <mxCell id="9EvKPtUy3ETr_sZ4B2fN-40" value="" style="edgeStyle=orthogonalEdgeStyle;rounded=0;orthogonalLoop=1;jettySize=auto;html=1;" edge="1" parent="WIyWlLk6GJQsqaUBKTNV-1" source="9EvKPtUy3ETr_sZ4B2fN-24" target="9EvKPtUy3ETr_sZ4B2fN-39">
          <mxGeometry relative="1" as="geometry" />
        </mxCell>
        <mxCell id="9EvKPtUy3ETr_sZ4B2fN-24" value="User input numerical value to be converted" style="shape=parallelogram;perimeter=parallelogramPerimeter;whiteSpace=wrap;html=1;fixedSize=1;" vertex="1" parent="WIyWlLk6GJQsqaUBKTNV-1">
          <mxGeometry x="368.58" y="680" width="167.82" height="80" as="geometry" />
        </mxCell>
        <mxCell id="9EvKPtUy3ETr_sZ4B2fN-38" value="" style="edgeStyle=orthogonalEdgeStyle;rounded=0;orthogonalLoop=1;jettySize=auto;html=1;" edge="1" parent="WIyWlLk6GJQsqaUBKTNV-1" source="9EvKPtUy3ETr_sZ4B2fN-26" target="9EvKPtUy3ETr_sZ4B2fN-37">
          <mxGeometry relative="1" as="geometry" />
        </mxCell>
        <mxCell id="9EvKPtUy3ETr_sZ4B2fN-26" value="User input numerical value to be converted" style="shape=parallelogram;perimeter=parallelogramPerimeter;whiteSpace=wrap;html=1;fixedSize=1;" vertex="1" parent="WIyWlLk6GJQsqaUBKTNV-1">
          <mxGeometry x="377.18" y="520" width="150.62" height="80" as="geometry" />
        </mxCell>
        <mxCell id="9EvKPtUy3ETr_sZ4B2fN-33" value="Conversion Factor for that unit applied" style="whiteSpace=wrap;html=1;" vertex="1" parent="WIyWlLk6GJQsqaUBKTNV-1">
          <mxGeometry x="589.995" y="160" width="120" height="60" as="geometry" />
        </mxCell>
        <mxCell id="9EvKPtUy3ETr_sZ4B2fN-35" value="&#xa;&lt;span style=&quot;color: rgb(0, 0, 0); font-family: Helvetica; font-size: 12px; font-style: normal; font-variant-ligatures: normal; font-variant-caps: normal; font-weight: 400; letter-spacing: normal; orphans: 2; text-align: center; text-indent: 0px; text-transform: none; widows: 2; word-spacing: 0px; -webkit-text-stroke-width: 0px; background-color: rgb(251, 251, 251); text-decoration-thickness: initial; text-decoration-style: initial; text-decoration-color: initial; float: none; display: inline !important;&quot;&gt;Conversion Factor for that unit applied&lt;/span&gt;&#xa;&#xa;" style="whiteSpace=wrap;html=1;" vertex="1" parent="WIyWlLk6GJQsqaUBKTNV-1">
          <mxGeometry x="590" y="353.75" width="120" height="60" as="geometry" />
        </mxCell>
        <mxCell id="9EvKPtUy3ETr_sZ4B2fN-37" value="Conversion Factor for that unit applied" style="whiteSpace=wrap;html=1;" vertex="1" parent="WIyWlLk6GJQsqaUBKTNV-1">
          <mxGeometry x="600" y="530" width="120" height="60" as="geometry" />
        </mxCell>
        <mxCell id="9EvKPtUy3ETr_sZ4B2fN-39" value="Conversion Factor for that unit applied" style="whiteSpace=wrap;html=1;" vertex="1" parent="WIyWlLk6GJQsqaUBKTNV-1">
          <mxGeometry x="599.9949999999999" y="690" width="120" height="60" as="geometry" />
        </mxCell>
        <mxCell id="9EvKPtUy3ETr_sZ4B2fN-42" value="" style="endArrow=none;html=1;rounded=0;" edge="1" parent="WIyWlLk6GJQsqaUBKTNV-1">
          <mxGeometry width="50" height="50" relative="1" as="geometry">
            <mxPoint x="760" y="710" as="sourcePoint" />
            <mxPoint x="710" y="180" as="targetPoint" />
            <Array as="points">
              <mxPoint x="760" y="620" />
              <mxPoint x="760" y="190" />
              <mxPoint x="710" y="190" />
            </Array>
          </mxGeometry>
        </mxCell>
        <mxCell id="9EvKPtUy3ETr_sZ4B2fN-44" value="" style="endArrow=classic;html=1;rounded=0;exitX=0.997;exitY=0.605;exitDx=0;exitDy=0;exitPerimeter=0;" edge="1" parent="WIyWlLk6GJQsqaUBKTNV-1" source="9EvKPtUy3ETr_sZ4B2fN-35">
          <mxGeometry width="50" height="50" relative="1" as="geometry">
            <mxPoint x="710" y="384" as="sourcePoint" />
            <mxPoint x="760" y="390" as="targetPoint" />
            <Array as="points">
              <mxPoint x="740" y="390" />
            </Array>
          </mxGeometry>
        </mxCell>
        <mxCell id="9EvKPtUy3ETr_sZ4B2fN-45" value="" style="endArrow=classic;html=1;rounded=0;exitX=1;exitY=0.5;exitDx=0;exitDy=0;" edge="1" parent="WIyWlLk6GJQsqaUBKTNV-1" source="9EvKPtUy3ETr_sZ4B2fN-33">
          <mxGeometry width="50" height="50" relative="1" as="geometry">
            <mxPoint x="460" y="450" as="sourcePoint" />
            <mxPoint x="760" y="190" as="targetPoint" />
          </mxGeometry>
        </mxCell>
        <mxCell id="9EvKPtUy3ETr_sZ4B2fN-46" value="" style="endArrow=classic;html=1;rounded=0;exitX=1;exitY=0.5;exitDx=0;exitDy=0;" edge="1" parent="WIyWlLk6GJQsqaUBKTNV-1" source="9EvKPtUy3ETr_sZ4B2fN-37">
          <mxGeometry width="50" height="50" relative="1" as="geometry">
            <mxPoint x="460" y="450" as="sourcePoint" />
            <mxPoint x="760" y="560" as="targetPoint" />
          </mxGeometry>
        </mxCell>
        <mxCell id="9EvKPtUy3ETr_sZ4B2fN-47" value="" style="endArrow=classic;html=1;rounded=0;exitX=1;exitY=0.5;exitDx=0;exitDy=0;" edge="1" parent="WIyWlLk6GJQsqaUBKTNV-1" source="9EvKPtUy3ETr_sZ4B2fN-39">
          <mxGeometry width="50" height="50" relative="1" as="geometry">
            <mxPoint x="460" y="450" as="sourcePoint" />
            <mxPoint x="760" y="720" as="targetPoint" />
          </mxGeometry>
        </mxCell>
        <mxCell id="9EvKPtUy3ETr_sZ4B2fN-49" value="Output value in specified Unit of Measure" style="rounded=1;whiteSpace=wrap;html=1;" vertex="1" parent="WIyWlLk6GJQsqaUBKTNV-1">
          <mxGeometry x="367.49" y="800" width="170" height="60" as="geometry" />
        </mxCell>
        <mxCell id="9EvKPtUy3ETr_sZ4B2fN-50" value="" style="endArrow=classic;html=1;rounded=0;" edge="1" parent="WIyWlLk6GJQsqaUBKTNV-1">
          <mxGeometry width="50" height="50" relative="1" as="geometry">
            <mxPoint x="760" y="703" as="sourcePoint" />
            <mxPoint x="450" y="780" as="targetPoint" />
            <Array as="points">
              <mxPoint x="760" y="780" />
            </Array>
          </mxGeometry>
        </mxCell>
        <mxCell id="9EvKPtUy3ETr_sZ4B2fN-52" value="" style="endArrow=classic;html=1;rounded=0;entryX=0.5;entryY=0;entryDx=0;entryDy=0;" edge="1" parent="WIyWlLk6GJQsqaUBKTNV-1" target="9EvKPtUy3ETr_sZ4B2fN-49">
          <mxGeometry width="50" height="50" relative="1" as="geometry">
            <mxPoint x="452" y="780" as="sourcePoint" />
            <mxPoint x="640" y="530" as="targetPoint" />
          </mxGeometry>
        </mxCell>
      </root>
    </mxGraphModel>
  </diagram>
</mxfile>
